<svg xmlns="http://www.w3.org/2000/svg" version="1.1" xmlns:xlink="http://www.w3.org/1999/xlink" xmlns:svgjs="http://svgjs.dev/svgjs" width="1440" height="560" preserveAspectRatio="none" viewBox="0 0 1440 560"><g mask="url(&quot;#SvgjsMask1014&quot;)" fill="none"><rect width="1440" height="560" x="0" y="0" fill="rgba(222, 220, 214, 1)"></rect><path d="M1440 0L1190.54 0L1440 32.13z" fill="rgba(255, 255, 255, .1)"></path><path d="M1190.54 0L1440 32.13L1440 230.85999999999999L718 0z" fill="rgba(255, 255, 255, .075)"></path><path d="M718 0L1440 230.85999999999999L1440 392.44L458.35 0z" fill="rgba(255, 255, 255, .05)"></path><path d="M458.35 0L1440 392.44L1440 477.02L369.09000000000003 0z" fill="rgba(255, 255, 255, .025)"></path><path d="M0 560L374.48 560L0 406.9z" fill="rgba(0, 0, 0, .1)"></path><path d="M0 406.9L374.48 560L954.73 560L0 184.92z" fill="rgba(0, 0, 0, .075)"></path><path d="M0 184.92000000000002L954.73 560L1246.76 560L0 80.07000000000002z" fill="rgba(0, 0, 0, .05)"></path><path d="M0 80.07000000000005L1246.76 560L1347.54 560L0 59.440000000000055z" fill="rgba(0, 0, 0, .025)"></path></g><defs><mask id="SvgjsMask1014"><rect width="1440" height="560" fill="#ffffff"></rect></mask></defs></svg>